<svg xmlns="http://www.w3.org/2000/svg" width="800" height="1000" viewBox="0 0 800 1000">
  <defs>
    <linearGradient id="bg" x1="0%" y1="0%" x2="100%" y2="100%">
      <stop offset="0%" style="stop-color:#0a0a2a;stop-opacity:1" />
      <stop offset="40%" style="stop-color:#1a0a3a;stop-opacity:1" />
      <stop offset="100%" style="stop-color:#0a0a1a;stop-opacity:1" />
    </linearGradient>
  </defs>
  <rect width="800" height="1000" fill="url(#bg)"/>
  <ellipse cx="400" cy="300" rx="200" ry="150" fill="#2a1a4a" opacity="0.3"/>
  <ellipse cx="400" cy="300" rx="150" ry="100" fill="#3a2a5a" opacity="0.2"/>
  <ellipse cx="400" cy="300" rx="100" ry="60" fill="#4a3a6a" opacity="0.15"/>
  <circle cx="250" cy="200" r="3" fill="#fff" opacity="0.6"/>
  <circle cx="550" cy="150" r="4" fill="#fff" opacity="0.5"/>
  <circle cx="350" cy="100" r="2.5" fill="#fff" opacity="0.4"/>
  <circle cx="600" cy="300" r="3" fill="#fff" opacity="0.5"/>
  <circle cx="200" cy="350" r="2" fill="#fff" opacity="0.3"/>
  <circle cx="480" cy="180" r="3.5" fill="#fff" opacity="0.4"/>
  <circle cx="150" cy="250" r="2.5" fill="#fff" opacity="0.3"/>
  <circle cx="650" cy="220" r="3" fill="#fff" opacity="0.4"/>
  <circle cx="300" cy="160" r="2" fill="#fff" opacity="0.5"/>
  <circle cx="500" cy="260" r="2.5" fill="#fff" opacity="0.3"/>
  <circle cx="400" cy="80" r="3" fill="#fff" opacity="0.4"/>
  <circle cx="680" cy="100" r="2" fill="#fff" opacity="0.3"/>
  <circle cx="120" cy="180" r="2" fill="#fff" opacity="0.3"/>
  <ellipse cx="400" cy="500" rx="120" ry="40" fill="#5a4a8a" opacity="0.2"/>
  <ellipse cx="400" cy="550" rx="90" ry="25" fill="#4a3a7a" opacity="0.15"/>
  <ellipse cx="400" cy="600" rx="60" ry="15" fill="#3a2a6a" opacity="0.1"/>
  <circle cx="350" cy="490" r="10" fill="#8a6acc" opacity="0.3"/>
  <circle cx="450" cy="540" r="8" fill="#7a5abc" opacity="0.25"/>
  <circle cx="380" cy="590" r="6" fill="#6a4aac" opacity="0.2"/>
  <text x="400" y="460" text-anchor="middle" font-family="Georgia,serif" font-size="32" fill="white" opacity="0.85" font-weight="300" letter-spacing="3">CELESTIAL JOURNEY</text>
  <text x="400" y="500" text-anchor="middle" font-family="sans-serif" font-size="15" fill="rgba(255,255,255,0.35)" letter-spacing="6">MIXED MEDIA</text>
</svg>