<svg xmlns="http://www.w3.org/2000/svg" width="800" height="1000" viewBox="0 0 800 1000">
  <defs>
    <linearGradient id="bg" x1="0%" y1="0%" x2="100%" y2="100%">
      <stop offset="0%" style="stop-color:#2d1a3a;stop-opacity:1" />
      <stop offset="40%" style="stop-color:#1a2a3a;stop-opacity:1" />
      <stop offset="100%" style="stop-color:#0a1a2a;stop-opacity:1" />
    </linearGradient>
  </defs>
  <rect width="800" height="1000" fill="url(#bg)"/>
  <ellipse cx="200" cy="700" rx="150" ry="200" fill="#4a2a5a" opacity="0.3"/>
  <ellipse cx="600" cy="650" rx="180" ry="250" fill="#3a2a5a" opacity="0.25"/>
  <ellipse cx="400" cy="500" rx="100" ry="150" fill="#5a3a6a" opacity="0.15"/>
  <circle cx="250" cy="400" r="40" fill="#8a5aaa" opacity="0.3"/>
  <circle cx="250" cy="400" r="25" fill="#aa7acc" opacity="0.2"/>
  <circle cx="550" cy="350" r="50" fill="#6a4a8a" opacity="0.25"/>
  <circle cx="550" cy="350" r="30" fill="#8a6aaa" opacity="0.15"/>
  <circle cx="400" cy="300" r="35" fill="#7a5a9a" opacity="0.2"/>
  <circle cx="400" cy="300" r="20" fill="#9a7aba" opacity="0.15"/>
  <circle cx="180" cy="500" r="25" fill="#6a4a8a" opacity="0.2"/>
  <circle cx="620" cy="450" r="30" fill="#7a5a9a" opacity="0.2"/>
  <circle cx="480" cy="500" r="20" fill="#8a5aaa" opacity="0.15"/>
  <ellipse cx="250" cy="360" rx="60" ry="20" fill="#9a7aba" opacity="0.1"/>
  <ellipse cx="400" cy="270" rx="50" ry="15" fill="#aa7acc" opacity="0.08"/>
  <ellipse cx="550" cy="310" rx="70" ry="18" fill="#8a6aaa" opacity="0.08"/>
  <circle cx="300" cy="420" r="8" fill="#c0a0e0" opacity="0.4"/>
  <circle cx="500" cy="380" r="6" fill="#c0a0e0" opacity="0.3"/>
  <circle cx="350" cy="320" r="7" fill="#d0b0e0" opacity="0.3"/>
  <text x="400" y="600" text-anchor="middle" font-family="Georgia,serif" font-size="30" fill="white" opacity="0.85" font-weight="300" letter-spacing="3">ETHEREAL GARDEN</text>
  <text x="400" y="640" text-anchor="middle" font-family="sans-serif" font-size="15" fill="rgba(255,255,255,0.35)" letter-spacing="6">BOTANICAL ABSTRACT</text>
</svg>