<svg xmlns="http://www.w3.org/2000/svg" width="800" height="1000" viewBox="0 0 800 1000">
  <defs>
    <linearGradient id="bg" x1="0%" y1="0%" x2="100%" y2="100%">
      <stop offset="0%" style="stop-color:#0a0a1a;stop-opacity:1" />
      <stop offset="50%" style="stop-color:#141430;stop-opacity:1" />
      <stop offset="100%" style="stop-color:#0a0a24;stop-opacity:1" />
    </linearGradient>
    <radialGradient id="moon" cx="70%" cy="15%" r="12%">
      <stop offset="0%" style="stop-color:#e8e8f0;stop-opacity:0.9" />
      <stop offset="70%" style="stop-color:#c0c0d0;stop-opacity:0.5" />
      <stop offset="100%" style="stop-color:#c0c0d0;stop-opacity:0" />
    </radialGradient>
  </defs>
  <rect width="800" height="1000" fill="url(#bg)"/>
  <circle cx="560" cy="150" r="70" fill="#d0d0e0" opacity="0.15"/>
  <circle cx="560" cy="150" r="45" fill="#e0e0f0" opacity="0.3"/>
  <circle cx="560" cy="150" r="35" fill="#f0f0ff" opacity="0.6"/>
  <circle cx="400" cy="80" r="4" fill="#fff" opacity="0.6"/>
  <circle cx="300" cy="120" r="3" fill="#fff" opacity="0.4"/>
  <circle cx="650" cy="90" r="3" fill="#fff" opacity="0.5"/>
  <circle cx="200" cy="60" r="4" fill="#fff" opacity="0.3"/>
  <circle cx="700" cy="200" r="3" fill="#fff" opacity="0.4"/>
  <circle cx="450" cy="50" r="2" fill="#fff" opacity="0.5"/>
  <circle cx="150" cy="180" r="3" fill="#fff" opacity="0.3"/>
  <circle cx="680" cy="50" r="4" fill="#fff" opacity="0.4"/>
  <circle cx="250" cy="200" r="2" fill="#fff" opacity="0.3"/>
  <circle cx="500" cy="110" r="2.5" fill="#fff" opacity="0.4"/>
  <circle cx="350" cy="170" r="3" fill="#fff" opacity="0.3"/>
  <path d="M0 600 Q100 550 200 580 Q300 610 400 570 Q500 530 600 560 Q700 590 800 550 L800 1000 L0 1000Z" fill="#141430" opacity="0.6"/>
  <path d="M0 650 Q150 690 250 650 Q350 610 450 660 Q550 710 700 640 Q750 620 800 640 L800 1000 L0 1000Z" fill="#0a0a1a" opacity="0.8"/>
  <ellipse cx="560" cy="150" rx="120" ry="60" fill="#c0c0d0" opacity="0.03"/>
  <text x="400" y="440" text-anchor="middle" font-family="Georgia,serif" font-size="32" fill="white" opacity="0.85" font-weight="300" letter-spacing="3">MIDNIGHT SONATA</text>
  <text x="400" y="480" text-anchor="middle" font-family="sans-serif" font-size="15" fill="rgba(255,255,255,0.35)" letter-spacing="6">OIL ON CANVAS</text>
</svg>