<svg xmlns="http://www.w3.org/2000/svg" width="800" height="1000" viewBox="0 0 800 1000">
  <defs>
    <linearGradient id="bg" x1="0%" y1="0%" x2="100%" y2="100%">
      <stop offset="0%" style="stop-color:#1a1a2e;stop-opacity:1" />
      <stop offset="50%" style="stop-color:#16213e;stop-opacity:1" />
      <stop offset="100%" style="stop-color:#0f3460;stop-opacity:1" />
    </linearGradient>
    <linearGradient id="road" x1="0%" y1="0%" x2="0%" y2="100%">
      <stop offset="0%" style="stop-color:#2a2a3e;stop-opacity:0.8" />
      <stop offset="100%" style="stop-color:#1a1a2e;stop-opacity:0.9" />
    </linearGradient>
  </defs>
  <rect width="800" height="1000" fill="url(#bg)"/>
  <rect x="100" y="200" width="80" height="300" fill="#2a2a4e" opacity="0.8"/>
  <rect x="200" y="150" width="60" height="350" fill="#3a3a5e" opacity="0.7"/>
  <rect x="290" y="180" width="90" height="320" fill="#2a2a4e" opacity="0.8"/>
  <rect x="420" y="120" width="70" height="380" fill="#3a3a5e" opacity="0.7"/>
  <rect x="520" y="160" width="100" height="340" fill="#2a2a4e" opacity="0.8"/>
  <rect x="650" y="140" width="80" height="360" fill="#3a3a5e" opacity="0.7"/>
  <rect x="0" y="500" width="800" height="500" fill="url(#road)"/>
  <circle cx="150" cy="240" r="8" fill="#ff6b35" opacity="0.9"/>
  <circle cx="150" cy="270" r="8" fill="#ffd700" opacity="0.9"/>
  <circle cx="150" cy="300" r="8" fill="#ff6b35" opacity="0.9"/>
  <circle cx="250" cy="220" r="6" fill="#ffd700" opacity="0.8"/>
  <circle cx="250" cy="250" r="6" fill="#ff6b35" opacity="0.8"/>
  <circle cx="330" cy="280" r="7" fill="#ffd700" opacity="0.9"/>
  <circle cx="330" cy="310" r="7" fill="#ff6b35" opacity="0.9"/>
  <circle cx="460" cy="200" r="9" fill="#ffd700" opacity="0.8"/>
  <circle cx="460" cy="230" r="9" fill="#ff6b35" opacity="0.8"/>
  <circle cx="560" cy="250" r="7" fill="#ffd700" opacity="0.9"/>
  <circle cx="560" cy="280" r="7" fill="#ff6b35" opacity="0.9"/>
  <circle cx="690" cy="230" r="8" fill="#ffd700" opacity="0.8"/>
  <circle cx="690" cy="260" r="8" fill="#ff6b35" opacity="0.8"/>
  <rect x="0" y="510" width="800" height="3" fill="#ffd700" opacity="0.15"/>
  <ellipse cx="400" cy="520" rx="300" ry="20" fill="#ff6b35" opacity="0.08"/>
  <text x="400" y="440" text-anchor="middle" font-family="Georgia,serif" font-size="34" fill="white" opacity="0.9" font-weight="300" letter-spacing="3">URBAN DREAMS</text>
  <text x="400" y="480" text-anchor="middle" font-family="sans-serif" font-size="16" fill="rgba(255,255,255,0.4)" letter-spacing="6">ABSTRACT MIXED MEDIA</text>
</svg>