<svg xmlns="http://www.w3.org/2000/svg" width="800" height="1000" viewBox="0 0 800 1000">
  <defs>
    <linearGradient id="bg" x1="0%" y1="0%" x2="100%" y2="100%">
      <stop offset="0%" style="stop-color:#f2e6d9;stop-opacity:1" />
      <stop offset="50%" style="stop-color:#e8d5c4;stop-opacity:1" />
      <stop offset="100%" style="stop-color:#dcc4b0;stop-opacity:1" />
    </linearGradient>
  </defs>
  <rect width="800" height="1000" fill="url(#bg)"/>
  <line x1="300" y1="800" x2="310" y2="500" stroke="#5a7a3a" stroke-width="3" opacity="0.6"/>
  <line x1="400" y1="820" x2="395" y2="480" stroke="#5a7a3a" stroke-width="3" opacity="0.6"/>
  <line x1="520" y1="790" x2="510" y2="520" stroke="#5a7a3a" stroke-width="2.5" opacity="0.5"/>
  <circle cx="310" cy="450" r="30" fill="#e88aaa" opacity="0.5"/>
  <circle cx="310" cy="420" r="25" fill="#f0a0b8" opacity="0.4"/>
  <circle cx="395" cy="430" r="35" fill="#d4758a" opacity="0.5"/>
  <circle cx="395" cy="395" r="28" fill="#e88aaa" opacity="0.4"/>
  <circle cx="395" cy="365" r="20" fill="#f0a0b8" opacity="0.3"/>
  <circle cx="510" cy="470" r="25" fill="#e88aaa" opacity="0.5"/>
  <circle cx="510" cy="445" r="20" fill="#d4758a" opacity="0.4"/>
  <circle cx="240" cy="500" r="22" fill="#f0a0b8" opacity="0.4"/>
  <circle cx="240" cy="475" r="18" fill="#e88aaa" opacity="0.3"/>
  <circle cx="450" cy="350" r="15" fill="#f0a0b8" opacity="0.3"/>
  <circle cx="350" cy="380" r="12" fill="#e88aaa" opacity="0.25"/>
  <circle cx="460" cy="400" r="18" fill="#d4758a" opacity="0.3"/>
  <ellipse cx="310" cy="510" rx="8" ry="4" fill="#6a9a4a" opacity="0.4"/>
  <ellipse cx="395" cy="490" rx="7" ry="3.5" fill="#6a9a4a" opacity="0.4"/>
  <ellipse cx="510" cy="520" rx="6" ry="3" fill="#6a9a4a" opacity="0.3"/>
  <text x="400" y="650" text-anchor="middle" font-family="Georgia,serif" font-size="30" fill="#5a4a3a" opacity="0.8" font-weight="300" letter-spacing="3">WHISPERS OF SPRING</text>
  <text x="400" y="690" text-anchor="middle" font-family="sans-serif" font-size="15" fill="#7a6a5a" opacity="0.4" letter-spacing="6">WATERCOLOR</text>
</svg>